<?xml version="1.0" ?><svg enable-background="new 0 0 515.91 728.5" height="512" id="Layer_1" version="1.1" viewBox="0 0 512.00003 512" width="512" xml:space="preserve" xmlns="http://www.w3.org/2000/svg" xmlns:cc="http://creativecommons.org/ns#" xmlns:dc="http://purl.org/dc/elements/1.1/" xmlns:inkscape="http://www.inkscape.org/namespaces/inkscape" xmlns:rdf="http://www.w3.org/1999/02/22-rdf-syntax-ns#" xmlns:sodipodi="http://sodipodi.sourceforge.net/DTD/sodipodi-0.dtd" xmlns:svg="http://www.w3.org/2000/svg"><defs id="defs7"/><g id="g7027" transform="translate(136.1786,108.25001)"><path d="m -733.62329,72.267944 c 0,203.804876 -165.21649,369.021366 -369.02141,369.021366 -203.8048,0 -369.0213,-165.21649 -369.0213,-369.021366 0,-203.804874 165.2165,-369.021364 369.0213,-369.021364 203.80492,0 369.02141,165.21649 369.02141,369.021364 z" id="path5082" style="fill:#0044aa;fill-opacity:1;fill-rule:nonzero;stroke:none" transform="matrix(0.69372682,0,0,0.69372682,884.75558,97.615782)"/><path d="m 210.73229,-24.749525 c -0.19978,0 -0.38356,0.018 -0.59292,0.053 -3.40864,3.1099 -4.93586,9.2429 -6.65702,13.933801 -4.05838,13.7420964 -5.03852,28.133996 -8.00451,42.098096 -1.64351,20.0331 -8.73557,40.24731 -3.88103,60.37111 0.25383,5.6096 8.33343,5.9875 9.81036,0.2425 1.12577,-4.6028 3.37139,-8.4171 4.25825,-13.0713 7.6088,-31.56931 12.56916,-64.13071 10.4842,-96.674807 -0.50845,-2.5063 -2.42041,-6.8943 -5.41733,-6.9533 z m 75.41001,16.1977014 c -13.86102,6.966696 -20.75517,21.6792956 -29.21537,33.8509956 -3.20826,4.6609 -5.41979,9.95 -8.57046,14.7155 -11.10587,18.8634 -23.38217,38.48991 -24.74142,60.937108 -0.50894,7.8727 10.94443,8.4196 13.36789,2.1561 3.42169,-5.693598 7.73853,-11.171198 11.21179,-16.979498 17.35799,-27.45971 30.83398,-57.16671 42.69096,-87.3494096 2.27951,-4.0523 -0.23752,-7.522896 -4.74339,-7.330796 z M 67.458819,1.4741724 c -1.29088,0 -2.57207,0.094 -3.85405,0.2695 -21.14861,3.9571 -28.32633,27.1691996 -24.41804,46.0598996 1.54451,16.45391 5.91886,32.57241 10.18779,48.35071 -13.72408,10.736198 -15.87426,-17.3961 -22.1002,-25.4421 -8.12357,-16.16051 -16.58129,-35.05991 -34.3630503,-42.25981 -19.4997697,-1.9843 -31.5622657,20.5998 -30.1046157,37.78591 -1.2886,18.0106 9.253006,34.827498 8.112316,52.339498 -16.331327,42.7941 -28.140777,89.5304 -20.779587,135.51161 4.07715,27.907 23.331007,54.0563 51.3424467,61.4222 33.7758603,10.5987 69.0940603,1.5117 101.7413813,-8.6245 48.8672,-15.2116 95.33148,-37.6803 139.04219,-64.1712 18.25741,-12.72141 40.4481,-26.06221 46.67977,-48.88981 1.8597,-27.1106 -21.1164,-48.0597 -43.17608,-59.8321 -35.87476,-18.8817 -76.28423,-26.5054 -115.75604,-33.9587 -8.50199,-3.314298 -24.83718,5.1786 -26.73579,-11.993398 -0.53592,-25.0878 -0.3223,-52.01001 -13.071481,-74.41271 C 85.458239,5.6846724 76.494939,1.4662724 67.458819,1.4741724 z" id="path3366" style="fill:#ffffff;fill-opacity:1;stroke:none"/></g></svg>